<svg version="1.1" id="OBJECTS" xmlns="http://www.w3.org/2000/svg" xmlns:xlink="http://www.w3.org/1999/xlink" x="0px" y="0px"
     viewBox="0 0 486.4 258.5" style="enable-background:new 0 307 1024 256;" xml:space="preserve">
<style type="text/css">
	.st0{fill:url(#SVGID_1_);}
	.st1{opacity:0.46;fill:url(#SVGID_2_);}
	.st2{opacity:0.76;fill:url(#SVGID_3_);}
	.st3{fill:#00A4FF;}
	.st4{fill:#FEFEFE;}
	.st5{fill:#00DBFF;}
	.st6{opacity:0.62;fill:#FEFEFE;}
	.st7{fill:none;stroke:#FEFEFE;stroke-width:1.6314;stroke-miterlimit:10;}
</style>
    <g>
	<linearGradient id="SVGID_1_" gradientUnits="userSpaceOnUse" x1="1.7326" y1="130.276" x2="487.9013" y2="130.276">
		<stop  offset="0" style="stop-color:#D34B39"/>
        <stop  offset="0.9838" style="stop-color:#D37639"/>
	</linearGradient>
        <path class="st0" d="M512 0V226c-39 16-91 32-146 31-20 0-40-3-59-9-6-2-13-4-19-7-36-15-76-23-115-25-15-1-30-1-44-1-40 1-77 6-129 11V0z"/>
        <linearGradient id="SVGID_2_" gradientUnits="userSpaceOnUse" x1="244.817" y1="-30.0278" x2="244.817" y2="329.4915">
		<stop  offset="0" style="stop-color:#FFC720"/>
            <stop  offset="0.9838" style="stop-color:#D57973"/>
	</linearGradient>
        <path class="st1" d="M409.6,126.3c0,53.5-25.5,101.1-65,131.1c-19.9-0.3-39.8-2.9-59.2-8.9c-6.5-2-13-4.3-19.4-7.1
		c-35.8-15.5-76.1-22.7-115.5-25c-14.9-0.9-29.7-1-44-0.7C89.7,190.1,80,159.3,80,126.3c0-49,21.4-93.1,55.4-123.2h218.7
		C388.2,33.2,409.6,77.3,409.6,126.3z"/>
        <linearGradient id="SVGID_3_" gradientUnits="userSpaceOnUse" x1="244.817" y1="-28.8085" x2="244.817" y2="317.4685">
		<stop  offset="0" style="stop-color:#FFC720"/>
            <stop  offset="0.9838" style="stop-color:#E3A884"/>
	</linearGradient>
        <path class="st2" d="M373.7,126.2c0,56.5-36.3,104.4-86.8,121.9c-6.5-2-12.9-4.3-19.3-7.1c-35.7-15.4-75.8-22.6-115-24.9
		c-22.7-23.2-36.6-54.9-36.6-89.9c0-57.3,39.1-106.3,90.8-123l77.4-0.1C335.8,19.8,373.7,68.9,373.7,126.2z"/>
        <g>
		<path class="st3" d="M291.1,189.7l-104.2-7.8c-3.4-0.3-5.9-3.2-5.6-6.6l4.1-55.3c0.3-3.4,3.2-5.9,6.6-5.6L239.3,87l15.4,2.6
			l41.4,32.6c3.4,0.3,5.9,3.2,5.6,6.6l-4.1,55.3C297.4,187.4,294.4,189.9,291.1,189.7z"/>
            <g>
			<path class="st4" d="M278.8,178.4l-85.2-16.8c-1.8-0.4-3-2.1-2.6-3.9L213,45.4c0.4-1.8,2.1-3,3.9-2.6l85.2,16.8
				c1.8,0.4,3,2.1,2.6,3.9l-22.1,112.4C282.4,177.6,280.6,178.8,278.8,178.4z"/>
		</g>
            <path class="st5" d="M301.5,131.8l-4.2,56.7c-0.4,5-4.7,8.7-9.7,8.3l-98.6-7.4c-5-0.4-8.7-4.7-8.3-9.7l4.2-56.7l56.2,33
			L301.5,131.8z"/>
            <polygon class="st3" points="280.3,196.3 196.7,190.1 230.3,149.9 241.1,156.1 252.6,151.3 		"/>
	</g>
        <path class="st6" d="M74,43.2c-3,0-5.7,1.3-7.6,3.4c-1.9-6.7-8-11.7-15.3-11.7c-8.8,0-15.9,7.1-15.9,15.9v6.5h28.7h3.1h17.1v-4.1
		C84.1,47.7,79.6,43.2,74,43.2z"/>
        <path class="st6" d="M443.5,182.7c-3,0-5.7,1.3-7.6,3.4c-1.9-6.7-8-11.7-15.3-11.7c-8.8,0-15.9,7.1-15.9,15.9v6.5h28.7h3.1h17.1
		v-4.1C453.6,187.2,449.1,182.7,443.5,182.7z"/>
        <path class="st6" d="M78.9,167.7c-1.9,0-3.5,0.8-4.7,2.1c-1.2-4.1-4.9-7.2-9.5-7.2c-5.4,0-9.8,4.4-9.8,9.8v4h17.7h1.9h10.5V174
		C85.2,170.5,82.4,167.7,78.9,167.7z"/>
        <path class="st6" d="M418,61.7c-1.9,0-3.5,0.8-4.7,2.1c-1.2-4.1-4.9-7.2-9.5-7.2c-5.4,0-9.8,4.4-9.8,9.8v4h17.7h1.9h10.5v-2.6
		C424.3,64.5,421.5,61.7,418,61.7z"/>
        <path class="st6" d="M369.7,112.9c-1.9,0-3.5,0.8-4.7,2.1c-1.2-4.1-4.9-7.2-9.5-7.2c-5.4,0-9.8,4.4-9.8,9.8v4h17.7h1.9H376v-2.6
		C376,115.7,373.2,112.9,369.7,112.9z"/>
        <path class="st6" d="M155.8,112.9c-1.9,0-3.5,0.8-4.7,2.1c-1.2-4.1-4.9-7.2-9.5-7.2c-5.4,0-9.8,4.4-9.8,9.8v4h17.7h1.9h10.5v-2.6
		C162.1,115.7,159.3,112.9,155.8,112.9z"/>
        <circle class="st7" cx="87.4" cy="105.5" r="3.3"/>
        <circle class="st7" cx="381" cy="178.1" r="3.3"/>
        <circle class="st7" cx="326.1" cy="47.1" r="3.3"/>
        <circle class="st7" cx="142.5" cy="188.4" r="3.3"/>
        <g>
		<line class="st7" x1="28.7" y1="129.2" x2="36.4" y2="137"/>
            <line class="st7" x1="36.4" y1="129.2" x2="28.7" y2="137"/>
	</g>
        <g>
		<line class="st7" x1="429.2" y1="93.7" x2="436.9" y2="101.5"/>
            <line class="st7" x1="436.9" y1="93.7" x2="429.2" y2="101.5"/>
	</g>
        <g>
		<line class="st7" x1="159.2" y1="53.7" x2="166.9" y2="61.5"/>
            <line class="st7" x1="166.9" y1="53.7" x2="159.2" y2="61.5"/>
	</g>
        <g>
		<line class="st7" x1="326.5" y1="210.3" x2="334.2" y2="218"/>
            <line class="st7" x1="334.2" y1="210.3" x2="326.5" y2="218"/>
	</g>
</g>
</svg>
